<?xml version="1.0" encoding="UTF-8" standalone="no"?>
<!-- Created with Inkscape (http://www.inkscape.org/) -->

<svg
   xmlns:dc="http://purl.org/dc/elements/1.1/"
   xmlns:cc="http://creativecommons.org/ns#"
   xmlns:rdf="http://www.w3.org/1999/02/22-rdf-syntax-ns#"
   xmlns:svg="http://www.w3.org/2000/svg"
   xmlns="http://www.w3.org/2000/svg"
   xmlns:sodipodi="http://sodipodi.sourceforge.net/DTD/sodipodi-0.dtd"
   xmlns:inkscape="http://www.inkscape.org/namespaces/inkscape"
   width="174.2892mm"
   height="75.904549mm"
   viewBox="0 0 174.2892 75.904549"
   version="1.1"
   id="svg8"
   inkscape:version="0.92.5 (2060ec1f9f, 2020-04-08)"
   sodipodi:docname="logo2.svg">
  <defs
     id="defs2" />
  <sodipodi:namedview
     id="base"
     pagecolor="#ffffff"
     bordercolor="#666666"
     borderopacity="1.0"
     inkscape:pageopacity="0.0"
     inkscape:pageshadow="2"
     inkscape:zoom="0.35"
     inkscape:cx="-156.34886"
     inkscape:cy="29.155952"
     inkscape:document-units="mm"
     inkscape:current-layer="layer1"
     showgrid="false"
     inkscape:window-width="1920"
     inkscape:window-height="1019"
     inkscape:window-x="0"
     inkscape:window-y="30"
     inkscape:window-maximized="1"
     fit-margin-top="0"
     fit-margin-left="0"
     fit-margin-right="0"
     fit-margin-bottom="0" />
  <metadata
     id="metadata5">
    <rdf:RDF>
      <cc:Work
         rdf:about="">
        <dc:format>image/svg+xml</dc:format>
        <dc:type
           rdf:resource="http://purl.org/dc/dcmitype/StillImage" />
        <dc:title></dc:title>
      </cc:Work>
    </rdf:RDF>
  </metadata>
  <g
     inkscape:label="Capa 1"
     inkscape:groupmode="layer"
     id="layer1"
     transform="translate(-16.420875,-80.642964)">
    <g
       id="g876"
       transform="translate(-0.77141638,-61.783363)">
      <g
         inkscape:label="Capa 2"
         id="layer2">
        <circle
           r="37.952274"
           cy="180.3786"
           cx="55.144566"
           id="path4604"
           style="fill:#ffc700;fill-opacity:1;stroke-width:0.26458332" />
      </g>
      <g
         id="layer1-9"
         inkscape:label="Capa 1">
        <flowRoot
           style="font-style:normal;font-weight:normal;font-size:40px;line-height:1.25;font-family:sans-serif;letter-spacing:0px;word-spacing:0px;fill:#000000;fill-opacity:1;stroke:none"
           id="flowRoot3762"
           xml:space="preserve"><flowRegion
             id="flowRegion3764"><rect
               y="629.66254"
               x="77.14286"
               height="122.85714"
               width="627.14288"
               id="rect3766" /></flowRegion><flowPara
             id="flowPara3768" /></flowRoot>        <g
           transform="matrix(3.4748151,0,0,3.4748151,-53.174675,-406.89188)"
           id="text3772"
           style="font-style:normal;font-weight:normal;font-size:10.58333302px;line-height:1.25;font-family:sans-serif;letter-spacing:0px;word-spacing:0px;fill:#000000;fill-opacity:1;stroke:none;stroke-width:0.26458332"
           aria-label="SERGUAT">
          <path
             inkscape:connector-curvature="0"
             id="path3782"
             style="font-style:normal;font-variant:normal;font-weight:normal;font-stretch:normal;font-size:10.58333302px;font-family:'DejaVu Sans';-inkscape-font-specification:'DejaVu Sans, Normal';font-variant-ligatures:normal;font-variant-caps:normal;font-variant-numeric:normal;font-feature-settings:normal;text-align:start;writing-mode:lr-tb;text-anchor:start;fill:#00006b;fill-opacity:1;stroke-width:0.26458332"
             d="m 26.452427,164.80578 v 1.01802 q -0.594279,-0.28422 -1.121378,-0.42374 -0.5271,-0.13953 -1.018026,-0.13953 -0.852661,0 -1.317749,0.33073 -0.45992,0.33073 -0.45992,0.94051 0,0.5116 0.304891,0.77515 0.310058,0.25838 1.167887,0.41857 l 0.630453,0.1292 q 1.167887,0.2222 1.720825,0.78548 0.558105,0.5581 0.558105,1.49861 0,1.12138 -0.754476,1.70016 -0.749308,0.57877 -2.201416,0.57877 -0.54777,0 -1.167887,-0.12402 -0.614949,-0.12402 -1.276408,-0.3669 v -1.07487 q 0.63562,0.35657 1.245402,0.53743 0.609782,0.18087 1.198893,0.18087 0.894003,0 1.379761,-0.3514 0.485759,-0.3514 0.485759,-1.00252 0,-0.56844 -0.3514,-0.88884 -0.346232,-0.32039 -1.142049,-0.48059 l -0.63562,-0.12402 q -1.167888,-0.23254 -1.68982,-0.72864 -0.521932,-0.49609 -0.521932,-1.37976 0,-1.02319 0.718303,-1.6123 0.72347,-0.58911 1.989542,-0.58911 0.542603,0 1.105876,0.0982 0.563273,0.0982 1.152384,0.29456 z" />
          <path
             inkscape:connector-curvature="0"
             id="path3784"
             style="font-style:normal;font-variant:normal;font-weight:normal;font-stretch:normal;font-size:10.58333302px;font-family:'DejaVu Sans';-inkscape-font-specification:'DejaVu Sans, Normal';font-variant-ligatures:normal;font-variant-caps:normal;font-variant-numeric:normal;font-feature-settings:normal;text-align:start;writing-mode:lr-tb;text-anchor:start;fill:#00006b;fill-opacity:1;stroke-width:0.26458332"
             d="m 28.545323,164.55256 h 4.878255 v 0.8785 h -3.834391 v 2.2841 h 3.674194 v 0.8785 h -3.674194 v 2.79569 h 3.927409 v 0.8785 h -4.971273 z" />
          <path
             inkscape:connector-curvature="0"
             id="path3786"
             style="font-style:normal;font-variant:normal;font-weight:normal;font-stretch:normal;font-size:10.58333302px;font-family:'DejaVu Sans';-inkscape-font-specification:'DejaVu Sans, Normal';font-variant-ligatures:normal;font-variant-caps:normal;font-variant-numeric:normal;font-feature-settings:normal;text-align:start;writing-mode:lr-tb;text-anchor:start;fill:#00006b;fill-opacity:1;stroke-width:0.26458332"
             d="m 38.890944,168.6505 q 0.335897,0.11369 0.651123,0.48576 0.320394,0.37207 0.640788,1.02319 l 1.059367,2.1084 h -1.121379 l -0.987019,-1.9792 q -0.382406,-0.77515 -0.744141,-1.02837 -0.356567,-0.25321 -0.976685,-0.25321 h -1.136881 v 3.26078 h -1.043864 v -7.71529 h 2.356445 q 1.322917,0 1.97404,0.55294 0.651123,0.55294 0.651123,1.66915 0,0.72864 -0.341064,1.20923 -0.335897,0.48059 -0.981853,0.66662 z m -2.614827,-3.24011 v 2.73885 h 1.312581 q 0.754476,0 1.136882,-0.34623 0.387573,-0.3514 0.387573,-1.02836 0,-0.67696 -0.387573,-1.01803 -0.382406,-0.34623 -1.136882,-0.34623 z" />
          <path
             inkscape:connector-curvature="0"
             id="path3788"
             style="font-style:normal;font-variant:normal;font-weight:normal;font-stretch:normal;font-size:10.58333302px;font-family:'DejaVu Sans';-inkscape-font-specification:'DejaVu Sans, Normal';font-variant-ligatures:normal;font-variant-caps:normal;font-variant-numeric:normal;font-feature-settings:normal;text-align:start;writing-mode:lr-tb;text-anchor:start;fill:#808080;stroke-width:0.26458332"
             d="m 47.84647,171.16714 v -2.07222 h -1.705322 v -0.85783 h 2.738851 v 3.31246 q -0.604614,0.42891 -1.333252,0.65112 -0.728638,0.21704 -1.555461,0.21704 -1.808675,0 -2.831868,-1.05419 -1.018026,-1.05937 -1.018026,-2.94556 0,-1.89136 1.018026,-2.94556 1.023193,-1.05936 2.831868,-1.05936 0.754476,0 1.431438,0.18603 0.682128,0.18604 1.255737,0.54777 v 1.11104 q -0.578776,-0.49092 -1.229899,-0.73897 -0.651123,-0.24805 -1.369426,-0.24805 -1.415934,0 -2.129069,0.79065 -0.707967,0.79065 -0.707967,2.35645 0,1.56063 0.707967,2.35128 0.713135,0.79065 2.129069,0.79065 0.552938,0 0.98702,-0.093 0.434082,-0.0982 0.780314,-0.29973 z" />
          <path
             inkscape:connector-curvature="0"
             id="path3790"
             style="font-style:normal;font-variant:normal;font-weight:normal;font-stretch:normal;font-size:10.58333302px;font-family:'DejaVu Sans';-inkscape-font-specification:'DejaVu Sans, Normal';font-variant-ligatures:normal;font-variant-caps:normal;font-variant-numeric:normal;font-feature-settings:normal;text-align:start;writing-mode:lr-tb;text-anchor:start;fill:#808080;stroke-width:0.26458332"
             d="m 50.668004,164.55256 h 1.049031 v 4.68705 q 0,1.24024 0.449585,1.78801 0.449585,0.5426 1.457276,0.5426 1.002522,0 1.452107,-0.5426 0.449585,-0.54777 0.449585,-1.78801 v -4.68705 h 1.049032 v 4.81625 q 0,1.50895 -0.749309,2.27893 -0.74414,0.76997 -2.201415,0.76997 -1.462443,0 -2.211752,-0.76997 -0.74414,-0.76998 -0.74414,-2.27893 z" />
          <path
             inkscape:connector-curvature="0"
             id="path3792"
             style="font-style:normal;font-variant:normal;font-weight:normal;font-stretch:normal;font-size:10.58333302px;font-family:'DejaVu Sans';-inkscape-font-specification:'DejaVu Sans, Normal';font-variant-ligatures:normal;font-variant-caps:normal;font-variant-numeric:normal;font-feature-settings:normal;text-align:start;writing-mode:lr-tb;text-anchor:start;fill:#808080;stroke-width:0.26458332"
             d="m 61.111809,165.58092 -1.415934,3.83956 h 2.837036 z m -0.589111,-1.02836 h 1.18339 l 2.940389,7.71529 h -1.085205 l -0.702799,-1.9792 h -3.477824 l -0.7028,1.9792 h -1.100708 z" />
          <path
             inkscape:connector-curvature="0"
             id="path3794"
             style="font-style:normal;font-variant:normal;font-weight:normal;font-stretch:normal;font-size:10.58333302px;font-family:'DejaVu Sans';-inkscape-font-specification:'DejaVu Sans, Normal';font-variant-ligatures:normal;font-variant-caps:normal;font-variant-numeric:normal;font-feature-settings:normal;text-align:start;writing-mode:lr-tb;text-anchor:start;fill:#808080;stroke-width:0.26458332"
             d="m 63.881666,164.55256 h 6.526733 v 0.8785 h -2.73885 v 6.83679 h -1.049032 v -6.83679 h -2.738851 z" />
        </g>
        <flowRoot
           style="font-style:normal;font-weight:normal;font-size:40px;line-height:1.25;font-family:sans-serif;letter-spacing:0px;word-spacing:0px;fill:#000000;fill-opacity:1;stroke:none"
           id="flowRoot3774"
           xml:space="preserve"><flowRegion
             id="flowRegion3776"><rect
               y="656.80542"
               x="267.14285"
               height="202.85715"
               width="477.14285"
               id="rect3778" /></flowRegion><flowPara
             id="flowPara3780" /></flowRoot>      </g>
    </g>
  </g>
</svg>
